<?xml version="1.0" encoding="UTF-8" standalone="no"?>
<!-- Created with Inkscape (http://www.inkscape.org/) -->

<svg
   xmlns:dc="http://purl.org/dc/elements/1.1/"
   xmlns:cc="http://creativecommons.org/ns#"
   xmlns:rdf="http://www.w3.org/1999/02/22-rdf-syntax-ns#"
   xmlns:svg="http://www.w3.org/2000/svg"
   xmlns="http://www.w3.org/2000/svg"
   xmlns:sodipodi="http://sodipodi.sourceforge.net/DTD/sodipodi-0.dtd"
   xmlns:inkscape="http://www.inkscape.org/namespaces/inkscape"
   width="1666mm"
   height="333mm"
   viewBox="0 0 1666 333"
   version="1.1"
   id="svg8"
   sodipodi:docname="drawing.svg"
   inkscape:version="0.92.3 (2405546, 2018-03-11)"
   inkscape:export-filename="C:\path12.png"
   inkscape:export-xdpi="25.400002"
   inkscape:export-ydpi="25.400002">
  <defs
     id="defs2">
    <inkscape:path-effect
       effect="skeletal"
       id="path-effect4742"
       is_visible="true"
       pattern="m -52.916664,-342.91666 v 10.58333 h 10.583333 52.916667 10.583333 v 63.5 h -52.916666 v -42.33333 H 2.6666667e-6 v 21.16667 H -10.583331 v -10.58334 h -10.583333 v 10.58334 10.58333 H -10.583331 2.6666667e-6 10.583336 v -10.58333 -21.16667 -10.58333 H 2.6666667e-6 -31.749997 -42.333331 v 10.58333 52.91667 h 10.583334 52.916666 10.583334 v -10.58334 -63.5 -10.58333 H 21.166669 10.583336 -42.333331 Z"
       copytype="repeated_stretched"
       prop_scale="1"
       scale_y_rel="false"
       spacing="0"
       normal_offset="0"
       tang_offset="0"
       prop_units="false"
       vertical_pattern="false"
       fuse_tolerance="0" />
    <inkscape:path-effect
       effect="skeletal"
       id="path-effect4725"
       is_visible="true"
       pattern="m -52.916664,-342.91666 h 63.500011 v 10.58334 h -63.500011 z m 10.583331,21.16666 h 52.916664 v 10.58333 h -52.916664 z m 4e-6,-21.16666 h 74.083337 v 10.58333 h -74.083337 z m 63.500001,0 h 10.583333 v 84.66668 H 21.166672 Z m -52.916667,74.08333 h 63.5 v 10.58334 h -63.5 z m -10.583334,-52.91666 h 10.583334 v 63.5 h -10.583334 z m 0,0 h 52.916665 v 10.58333 h -52.916665 z m 42.3333316666667,0 H 10.583336 v 42.33333 H 2.6666667e-6 Z M -21.166661,-289.99999 h 31.75 v 10.58333 h -31.75 z m 0,-10.58334 h 10.583333 v 21.16667 h -10.583333 z m 10.583333,42.33334 z"
       copytype="repeated_stretched"
       prop_scale="1"
       scale_y_rel="false"
       spacing="0"
       normal_offset="0"
       tang_offset="0"
       prop_units="false"
       vertical_pattern="false"
       fuse_tolerance="0" />
    <inkscape:path-effect
       effect="skeletal"
       id="path-effect4694"
       is_visible="true"
       pattern="m -52.916664,-342.91666 h 74.083336 v 10.58333 h -74.083336 z m 63.5,0 h 10.583333 v 84.66668 H 10.583336 Z m -52.916667,74.08333 h 63.5 v 10.58334 h -63.5 z m -10.583333,-52.91666 h 10.583333 v 63.5 h -10.583333 z m 0,0 H 2.0833326e-8 v 10.58333 H -52.916664 Z m 42.333333,0 H 2.6666667e-6 v 42.33333 H -10.583331 Z m -21.166667,31.75 H 2.6666667e-6 v 10.58333 H -31.749998 Z m 0,-10.58334 h 10.583334 v 21.16667 h -10.583334 z m 10.583334,42.33334 z"
       copytype="repeated_stretched"
       prop_scale="1"
       scale_y_rel="false"
       spacing="0"
       normal_offset="0"
       tang_offset="0"
       prop_units="false"
       vertical_pattern="false"
       fuse_tolerance="0" />
    <inkscape:path-effect
       effect="skeletal"
       id="path-effect3778"
       is_visible="true"
       pattern="m -52.916664,-342.91666 h 74.083336 v 10.58333 h -74.083336 z m 63.5,0 h 10.583333 v 84.66668 H 10.583336 Z m -52.916667,74.08333 h 63.5 v 10.58334 h -63.5 z m -10.583333,-52.91666 h 10.583333 v 63.5 h -10.583333 z m 0,0 H 2.0833326e-8 v 10.58333 H -52.916664 Z m 42.333333,0 H 2.6666667e-6 v 42.33333 H -10.583331 Z m -21.166667,31.75 H 2.6666667e-6 v 10.58333 H -31.749998 Z m 0,-10.58334 h 10.583334 v 21.16667 h -10.583334 z m 10.583334,42.33334 z"
       copytype="repeated"
       prop_scale="1"
       scale_y_rel="true"
       spacing="0"
       normal_offset="0"
       tang_offset="0"
       prop_units="false"
       vertical_pattern="false"
       fuse_tolerance="0" />
    <inkscape:path-effect
       effect="skeletal"
       id="path-effect3765"
       is_visible="true"
       pattern="m -52.916664,-342.91666 h 74.083336 v 10.58333 h -74.083336 z m 63.5,0 h 10.583333 v 84.66668 H 10.583336 Z m -52.916667,74.08333 h 63.5 v 10.58334 h -63.5 z m -10.583333,-52.91666 h 10.583333 v 63.5 h -10.583333 z m 0,0 H 2.0833326e-8 v 10.58333 H -52.916664 Z m 42.333333,0 H 2.6666667e-6 v 42.33333 H -10.583331 Z m -21.166667,31.75 H 2.6666667e-6 v 10.58333 H -31.749998 Z m 0,-10.58334 h 10.583334 v 21.16667 h -10.583334 z m 10.583334,42.33334 z"
       copytype="repeated_stretched"
       prop_scale="1"
       scale_y_rel="false"
       spacing="0"
       normal_offset="0"
       tang_offset="0"
       prop_units="false"
       vertical_pattern="false"
       fuse_tolerance="0" />
  </defs>
  <sodipodi:namedview
     id="base"
     pagecolor="#ffffff"
     bordercolor="#666666"
     borderopacity="1.0"
     inkscape:pageopacity="0.0"
     inkscape:pageshadow="2"
     inkscape:zoom="0.02"
     inkscape:cx="4728.0164"
     inkscape:cy="2242.8522"
     inkscape:document-units="mm"
     inkscape:current-layer="layer1"
     showgrid="true"
     inkscape:window-width="800"
     inkscape:window-height="561"
     inkscape:window-x="-4"
     inkscape:window-y="-4"
     inkscape:window-maximized="1"
     showguides="true"
     inkscape:lockguides="false"
     inkscape:snap-intersection-paths="true">
    <inkscape:grid
       type="xygrid"
       id="grid10"
       originx="52.916664"
       originy="-306.91667" />
  </sodipodi:namedview>
  <metadata
     id="metadata5">
    <rdf:RDF>
      <cc:Work
         rdf:about="">
        <dc:format>image/svg+xml</dc:format>
        <dc:type
           rdf:resource="http://purl.org/dc/dcmitype/StillImage" />
        <dc:title></dc:title>
      </cc:Work>
    </rdf:RDF>
  </metadata>
  <g
     inkscape:label="Layer 1"
     inkscape:groupmode="layer"
     id="layer1"
     transform="translate(52.916664,342.91666)">
    <path
       style="fill:#000000;fill-opacity:1;stroke:none;stroke-width:2.35702372;stroke-miterlimit:4;stroke-dasharray:none"
       d="m -116.41667,138.25 v 10.58333 h 10.58334 52.916663 10.583334 v 63.5 H -95.249999 V 170 H -63.5 v 21.16667 H -74.083333 V 180.58333 H -84.666666 V 191.16667 201.75 H -74.083333 -63.5 -52.916667 V 191.16667 170 159.41667 H -63.5 -95.249999 -105.83333 V 170 222.91667 H -95.249999 -42.333333 -31.75 v -10.58334 -63.5 V 138.25 h -10.583333 -10.583334 -52.916663 z"
       id="rect4706"
       inkscape:connector-curvature="0" />
    <path
       style="fill:#000000;fill-opacity:1;stroke:none;stroke-width:2.62905788;stroke-linecap:butt;stroke-linejoin:miter;stroke-miterlimit:4;stroke-dasharray:none;stroke-opacity:1"
       d="m -52.916649,-198.67602 v 5.56483 33.38904 5.56484 h 5.76563 28.82794 5.76563 v -27.8242 -5.56484 h -5.76563 -17.29693 -5.76537 v 5.56484 11.12968 5.56484 h 5.76537 5.76565 5.76563 v -5.56484 -5.56484 h -5.76563 v 5.56484 h -5.76565 v -11.12968 h 17.29693 v 22.25936 h -28.82794 v -33.38904 h 5.76564 28.82793 5.76565 v 33.38904 5.56484 h 5.76537 28.8282 5.76537 v -27.8242 -5.56484 h -5.76537 -17.29692 -5.76564 v 5.56484 11.12968 5.56484 h 5.76564 5.76564 5.76564 v -5.56484 -5.56484 h -5.76564 v 5.56484 h -5.76564 v -11.12968 h 17.29692 v 22.25936 h -28.8282 v -33.38904 h 5.76564 28.82793 5.76564 v 33.38904 5.56484 h 5.76564 28.82793 5.76564 v -27.8242 -5.56484 h -5.76564 -17.29665 -5.76564 v 5.56484 11.12968 5.56484 h 5.76564 5.76564 5.76537 v -5.56484 -5.56484 h -5.76537 v 5.56484 h -5.76564 v -11.12968 h 17.29665 v 22.25936 h -28.82793 v -33.38904 h 5.76564 28.82793 5.76564 v 33.38904 5.56484 h 5.76564 28.827929 5.76564 v -27.8242 -5.56484 h -5.76564 -17.29692 -5.765369 v 5.56484 11.12968 5.56484 h 5.765369 5.76564 5.76564 v -5.56484 -5.56484 h -5.76564 v 5.56484 h -5.76564 v -11.12968 h 17.29692 v 22.25936 H 91.223271 v -33.38904 h 5.76564 28.827929 5.76564 v 33.38904 5.56484 h 5.76537 28.8282 5.76564 v -27.8242 -5.56484 h -5.76564 -17.29692 -5.76564 v 5.56484 11.12968 5.56484 h 5.76564 5.76564 5.76564 v -5.56484 -5.56484 h -5.76564 v 5.56484 h -5.76564 v -11.12968 h 17.29692 v 22.25936 h -28.8282 v -33.38904 h 5.76564 28.8282 5.76537 v 33.38904 5.56484 h 5.76564 28.82793 5.76564 v -27.8242 -5.56484 h -5.76564 -17.29665 -5.76564 v 5.56484 11.12968 5.56484 h 5.76564 5.76565 5.76536 v -5.56484 -5.56484 h -5.76536 v 5.56484 h -5.76565 v -11.12968 h 17.29665 v 22.25936 H 183.4727 v -33.38904 h 5.76564 28.82793 5.76564 v 33.38904 5.56484 h 5.76565 28.82793 5.76564 v -27.8242 -5.56484 h -5.76564 -17.29692 -5.76537 v 5.56484 11.12968 5.56484 h 5.76537 5.76564 5.76564 v -5.56484 -5.56484 h -5.76564 v 5.56484 h -5.76564 v -11.12968 h 17.29692 v 22.25936 h -28.82793 v -33.38904 h 5.76564 28.82793 5.76563 v 33.38904 5.56484 h 5.76565 28.82793 5.76564 v -27.8242 -5.56484 h -5.76564 -17.29692 -5.76564 v 5.56484 11.12968 5.56484 h 5.76564 5.76564 5.76564 v -5.56484 -5.56484 h -5.76564 v 5.56484 h -5.76564 v -11.12968 h 17.29692 v 22.25936 h -28.82793 v -33.38904 h 5.76537 28.8282 5.76537 v 33.38904 5.56484 h 5.76565 28.82792 5.76565 v -27.8242 -5.56484 h -5.76565 -17.29665 -5.76564 v 5.56484 11.12968 5.56484 h 5.76564 5.76564 5.76564 v -5.56484 -5.56484 h -5.76564 v 5.56484 h -5.76564 v -11.12968 h 17.29665 v 22.25936 H 321.847 v -33.38904 h 5.76563 28.82794 5.76563 v 33.38904 5.56484 h 5.76565 28.82792 5.76565 v -27.8242 -5.56484 h -5.76565 -17.29665 -5.76564 v 5.56484 11.12968 5.56484 h 5.76564 5.76537 5.76565 v -5.56484 -5.56484 h -5.76565 v 5.56484 h -5.76537 v -11.12968 h 17.29665 v 22.25936 h -28.82792 v -33.38904 h 5.76563 28.82794 5.76563 v 33.38904 5.56484 h 5.76564 28.82793 5.76564 v -27.8242 -5.56484 h -5.76564 -17.29691 -5.76565 v 5.56484 11.12968 5.56484 h 5.76565 5.76563 5.76565 v -5.56484 -5.56484 h -5.76565 v 5.56484 h -5.76563 v -11.12968 h 17.29691 v 22.25936 h -28.82793 v -33.38904 h 5.76537 28.8282 5.76537 v 33.38904 5.56484 h 5.76565 28.82792 5.76565 v -27.8242 -5.56484 h -5.76565 -17.29664 -5.76565 v 5.56484 11.12968 5.56484 h 5.76565 5.76564 5.76564 v -5.56484 -5.56484 h -5.76564 v 5.56484 h -5.76564 v -11.12968 h 17.29664 v 22.25936 h -28.82792 v -33.38904 h 5.76563 28.82794 5.76563 v 33.38904 5.56484 h 5.76565 28.82792 5.76565 v -27.8242 -5.56484 h -5.76565 -17.29664 -5.76564 v 5.56484 11.12968 5.56484 h 5.76564 5.76536 5.76565 v -5.56484 -5.56484 h -5.76565 v 5.56484 h -5.76536 v -11.12968 h 17.29664 v 22.25936 h -28.82792 v -33.38904 h 5.76564 28.82793 5.76564 v 33.38904 5.56484 h 5.76564 28.82794 5.76563 v -27.8242 -5.56484 h -5.76563 -17.29693 -5.76537 v 5.56484 11.12968 5.56484 h 5.76537 5.76563 5.76565 v -5.56484 -5.56484 h -5.76565 v 5.56484 h -5.76563 v -11.12968 h 17.29693 v 22.25936 h -28.82794 v -33.38904 h 5.76564 28.82793 5.76564 v 33.38904 5.56484 h 5.76537 28.82821 5.76536 v -27.8242 -5.56484 h -5.76536 -17.29693 -5.76565 v 5.56484 11.12968 5.56484 h 5.76565 5.76565 5.76563 v -5.56484 -5.56484 h -5.76563 v 5.56484 h -5.76565 v -11.12968 h 17.29693 v 22.25936 h -28.82821 v -33.38904 h 5.76563 28.82794 5.76565 v 33.38904 5.56484 h 5.76563 28.82794 5.76563 v -27.8242 -5.56484 h -5.76563 -17.29666 -5.76563 v 5.56484 11.12968 5.56484 h 5.76563 5.76565 5.76536 v -5.56484 -5.56484 h -5.76536 v 5.56484 h -5.76565 v -11.12968 h 17.29666 v 22.25936 h -28.82794 v -33.38904 h 5.76565 28.82792 5.76565 v 33.38904 5.56484 h 5.76563 28.82794 5.76563 v -27.8242 -5.56484 h -5.76563 -17.29692 -5.76537 v 5.56484 11.12968 5.56484 h 5.76537 5.76564 5.76563 v -5.56484 -5.56484 h -5.76563 v 5.56484 h -5.76564 v -11.12968 h 17.29692 v 22.25936 h -28.82794 v -33.38904 h 5.76565 28.82792 5.76565 v 33.38904 5.56484 h 5.76537 28.8282 5.76537 v -27.8242 -5.56484 h -5.76537 -17.29693 -5.76563 v 5.56484 11.12968 5.56484 h 5.76563 5.76565 5.76563 v -5.56484 -5.56484 h -5.76563 v 5.56484 h -5.76565 v -11.12968 h 17.29693 v 22.25936 h -28.8282 v -33.38904 h 5.76564 28.82793 5.36403 0.14456 v 33.38904 h -0.14456 v 5.56484 h 0.14456 0.25705 5.5086 0.25704 0.14456 5.36403 28.82794 5.76563 5.76537 5.76564 28.82793 5.76564 5.76565 5.76563 28.82794 5.76563 5.76565 5.76563 28.82794 5.76563 5.76537 5.76565 28.82794 5.7656 5.7657 5.7656 28.828 5.7656 5.7656 5.7657 28.8279 5.7656 5.7657 5.7653 28.8282 5.7654 5.7657 5.7656 28.8279 5.7657 5.7656 5.7657 28.8279 5.7656 5.7657 5.7653 28.8282 5.7654 5.7656 5.7657 28.8279 5.7657 5.7656 5.7656 28.8279 5.7657 5.7656 5.7654 28.8282 5.7656 5.7654 5.7657 28.8279 5.7656 5.7657 5.7656 28.8279 5.7657 5.7656 5.7657 28.8278 5.7657 5.7654 5.7657 28.8278 5.7657 5.7656 v -5.56484 -33.38904 -5.56483 h -5.7656 -28.8279 -5.7656 v 27.82419 5.56484 h 5.7656 17.2969 5.7653 v -5.56484 -11.12968 -5.56484 h -5.7653 -5.7656 -5.7657 v 5.56484 5.56484 h 5.7657 v -5.56484 h 5.7656 v 11.12968 h -17.2969 v -22.25936 h 28.8279 v 33.38904 h -5.7657 -28.8278 -5.7657 v -33.38904 -5.56483 h -5.7654 -28.8282 -5.7653 v 27.82419 5.56484 h 5.7653 17.2969 5.7656 v -5.56484 -11.12968 -5.56484 h -5.7656 -5.7656 -5.7657 v 5.56484 5.56484 h 5.7657 v -5.56484 h 5.7656 v 11.12968 h -17.2969 v -22.25936 h 28.8282 v 33.38904 h -5.7657 -28.8278 -5.7657 v -33.38904 -5.56483 h -5.7656 -28.828 -5.7656 v 27.82419 5.56484 h 5.7656 17.2967 5.7656 v -5.56484 -11.12968 -5.56484 h -5.7656 -5.7657 -5.7653 v 5.56484 5.56484 h 5.7653 v -5.56484 h 5.7657 v 11.12968 h -17.2967 v -22.25936 h 28.828 v 33.38904 h -5.7657 -28.8279 -5.7656 v -33.38904 -5.56483 h -5.7657 -28.8279 -5.7656 v 27.82419 5.56484 h 5.7656 17.2969 5.7654 v -5.56484 -11.12968 -5.56484 h -5.7654 -5.7656 -5.7657 v 5.56484 5.56484 h 5.7657 v -5.56484 h 5.7656 v 11.12968 h -17.2969 v -22.25936 h 28.8279 v 33.38904 h -5.7656 -28.8279 -5.7657 v -33.38904 -5.56483 h -5.7654 -28.8282 -5.7656 v 27.82419 5.56484 h 5.7656 17.297 5.7656 v -5.56484 -11.12968 -5.56484 h -5.7656 -5.7657 -5.7656 v 5.56484 5.56484 h 5.7656 v -5.56484 h 5.7657 v 11.12968 h -17.297 v -22.25936 h 28.8282 v 33.38904 h -5.7656 -28.8282 -5.7654 v -33.38904 -5.56483 h -5.7656 -28.8279 -5.7657 v 27.82419 5.56484 h 5.7657 17.2966 5.7656 v -5.56484 -11.12968 -5.56484 h -5.7656 -5.7656 -5.7654 v 5.56484 5.56484 h 5.7654 v -5.56484 h 5.7656 v 11.12968 h -17.2966 v -22.25936 h 28.8279 v 33.38904 h -5.7657 -28.8279 -5.7656 v -33.38904 -5.56483 h -5.7656 -28.828 -5.7656 v 27.82419 5.56484 h 5.7656 17.297 5.7653 v -5.56484 -11.12968 -5.56484 h -5.7653 -5.7657 -5.7656 v 5.56484 5.56484 h 5.7656 v -5.56484 h 5.7657 v 11.12968 h -17.297 v -22.25936 h 28.828 v 33.38904 h -5.7657 -28.8279 -5.7657 v -33.38904 -5.56483 h -5.7656 -28.8279 -5.7657 v 27.82419 5.56484 h 5.7657 17.2969 5.7656 v -5.56484 -11.12968 -5.56484 h -5.7656 -5.7656 -5.7657 v 5.56484 5.56484 h 5.7657 v -5.56484 h 5.7656 v 11.12968 h -17.2969 v -22.25936 h 28.8279 v 33.38904 h -5.7654 -28.8282 -5.7653 v -33.38904 -5.56483 h -5.7657 -28.8279 -5.7656 v 27.82419 5.56484 h 5.7656 17.2966 5.7657 v -5.56484 -11.12968 -5.56484 h -5.7657 -5.7656 -5.7656 v 5.56484 5.56484 h 5.7656 v -5.56484 h 5.7656 v 11.12968 h -17.2966 v -22.25936 h 28.8279 v 33.38904 h -5.7656 -28.8279 -5.7657 v -33.38904 -5.56483 h -5.7656 -28.828 -5.7656 v 27.82419 5.56484 h 5.7656 17.2967 5.7656 v -5.56484 -11.12968 -5.56484 h -5.7656 -5.7654 -5.7656 v 5.56484 5.56484 h 5.7656 v -5.56484 h 5.7654 v 11.12968 h -17.2967 v -22.25936 h 28.828 v 33.38904 h -5.7657 -28.8279 -5.7656 v -33.38904 -5.56483 h -5.7657 -28.8279 -5.7657 v 27.82419 5.56484 h 5.7657 17.2969 5.7656 v -5.56484 -11.12968 -5.56484 h -5.7656 -5.7656 -5.7657 v 5.56484 5.56484 h 5.7657 v -5.56484 h 5.7656 v 11.12968 h -17.2969 v -22.25936 h 28.8279 v 33.38904 h -5.7654 -28.8282 -5.7653 v -33.38904 -5.56483 h -5.7657 -28.8279 -5.7656 v 27.82419 5.56484 h 5.7656 17.2967 5.7656 v -5.56484 -11.12968 -5.56484 h -5.7656 -5.7657 -5.7656 v 5.56484 5.56484 h 5.7656 v -5.56484 h 5.7657 v 11.12968 h -17.2967 v -22.25936 h 28.8279 v 33.38904 h -5.7656 -28.8279 -5.7657 v -33.38904 -5.56483 h -5.7656 -28.8279 -5.7657 v 27.82419 5.56484 h 5.7657 17.2966 5.7657 v -5.56484 -11.12968 -5.56484 h -5.7657 -5.7654 -5.7656 v 5.56484 5.56484 h 5.7656 v -5.56484 h 5.7654 v 11.12968 h -17.2966 v -22.25936 h 28.8279 v 33.38904 h -5.7656 -28.828 -5.7656 v -33.38904 -5.56483 h -5.7657 -28.8279 -5.76564 v 27.82419 5.56484 h 5.76564 17.29691 5.76539 v -5.56484 -11.12968 -5.56484 h -5.76539 -5.76563 -5.76564 v 5.56484 5.56484 h 5.76564 v -5.56484 h 5.76563 v 11.12968 H 978.8678 v -22.25936 h 28.8279 v 33.38904 h -5.7656 -28.82794 -5.76565 v -33.38904 -5.56483 h -5.76537 -28.8282 -5.76537 v 27.82419 5.56484 h 5.76537 17.29692 5.76565 v -5.56484 -11.12968 -5.56484 h -5.76565 -5.76563 -5.76564 v 5.56484 5.56484 h 5.76564 v -5.56484 h 5.76563 v 11.12968 h -17.29692 v -22.25936 h 28.8282 v 33.38904 h -5.76563 -28.82794 -5.76563 v -33.38904 -5.56483 h -5.76565 -28.82792 -5.76565 v 27.82419 5.56484 h 5.76565 17.29665 5.76564 v -5.56484 -11.12968 -5.56484 h -5.76564 -5.76565 -5.76537 v 5.56484 5.56484 h 5.76537 v -5.56484 h 5.76565 v 11.12968 h -17.29665 v -22.25936 h 28.82792 v 33.38904 h -5.76563 -28.82794 -5.76563 v -33.38904 -5.56483 h -5.76565 -28.82792 -5.76565 v 27.82419 5.56484 h 5.76565 17.29691 5.76537 v -5.56484 -11.12968 -5.56484 h -5.76537 -5.76563 -5.76565 v 5.56484 5.56484 h 5.76565 v -5.56484 h 5.76563 v 11.12968 h -17.29691 v -22.25936 h 28.82792 v 33.38904 h -5.76564 -28.82793 -5.76564 v -33.38904 -5.56483 h -5.76537 -28.8282 -5.76537 v 27.82419 5.56484 h 5.76537 17.29692 5.76565 v -5.56484 -11.12968 -5.56484 h -5.76565 -5.76563 -5.76565 v 5.56484 5.56484 h 5.76565 v -5.56484 h 5.76563 v 11.12968 h -17.29692 v -22.25936 h 28.8282 v 33.38904 h -5.76563 -28.82794 -5.36403 -0.14456 v -33.38904 h 0.14456 v -5.56483 h -0.14456 -0.25704 -5.5086 -0.40161 -5.36403 -28.82793 -5.76564 -5.76537 -5.76565 -28.82792 -5.76565 -5.76563 -5.76565 -28.82792 -5.76565 -5.76563 -5.76565 -28.82794 -5.76563 -5.76537 -5.76564 -28.82793 -5.76564 -5.76564 -5.76564 -28.82793 -5.76564 -5.76565 -5.76563 -28.82794 -5.76563 -5.76565 -5.76537 -28.8282 -5.76537 -5.76564 -5.76563 -28.82794 -5.76563 -5.76565 -5.76563 -28.82794 -5.76563 -5.76565 -5.76537 -28.8282 -5.76537 -5.76565 -5.76563 -28.82793 -5.76564 -5.76565 -5.76564 -28.82793 -5.76564 -5.76564 -5.76537 -28.8282 -5.76564 -5.76537 -5.76564 -28.827929 -5.76564 -5.76564 -5.76564 -28.82793 -5.76564 -5.76564 -5.76564 -28.82793 -5.76564 -5.76537 -5.76565 -28.82793 -5.76564 z"
       id="path3776-4"
       inkscape:connector-curvature="0" />
  </g>
</svg>
